<?xml version="1.0" encoding="UTF-8" standalone="no"?>
<!DOCTYPE svg PUBLIC "-//W3C//DTD SVG 1.1//EN" "http://www.w3.org/Graphics/SVG/1.1/DTD/svg11.dtd">
<svg version="1.1" xmlns="http://www.w3.org/2000/svg" xmlns:xlink="http://www.w3.org/1999/xlink" preserveAspectRatio="xMidYMid meet" viewBox="0 0 640 640" width="640" height="640"><defs><path d="M299.12 185.6L250.91 368.06L250.91 160L389.09 160L389.09 368.1L340.88 185.6L299.12 185.6Z" id="c74HvA2klj"></path><path d="M299.12 185.6L250.91 368.06L250.91 160L389.09 160L389.09 368.1L340.88 185.6L299.12 185.6Z" id="f1846egmsl"></path><path d="M238.11 134.4L238.11 353.54L214.26 353.54L169.75 185.6L128 185.6L173.66 353.54L99.92 353.54L99.92 134.4L238.11 134.4Z" id="a27F7BWgs"></path><path d="M238.11 134.4L238.11 353.54L214.26 353.54L169.75 185.6L128 185.6L173.66 353.54L99.92 353.54L99.92 134.4L238.11 134.4Z" id="a1UDQKDCd6"></path><path d="M540.08 134.4L540.08 353.54L466.34 353.54L512 185.6L470.23 185.6L425.73 353.54L401.89 353.54L401.89 134.4L540.08 134.4Z" id="a1VRN9eC6e"></path><path d="M540.08 134.4L540.08 353.54L466.34 353.54L512 185.6L470.23 185.6L425.73 353.54L401.89 353.54L401.89 134.4L540.08 134.4Z" id="f1qD1aVUr"></path><path d="M283.51 396.8L313.6 396.8L313.6 521.17L116.38 521.17L116.38 396.8L185.42 396.8L211.52 492.8L257.35 492.8L283.51 396.8Z" id="b49UuJR0C3"></path><path d="M283.51 396.8L313.6 396.8L313.6 521.17L116.38 521.17L116.38 396.8L185.42 396.8L211.52 492.8L257.35 492.8L283.51 396.8Z" id="b27Drdo6kq"></path><path d="M454.58 396.8L523.62 396.8L523.62 521.16L326.4 521.16L326.4 396.8L356.57 396.8L382.64 492.8L428.48 492.8L454.58 396.8Z" id="bHGlMyQcS"></path><path d="M454.58 396.8L523.62 396.8L523.62 521.16L326.4 521.16L326.4 396.8L356.57 396.8L382.64 492.8L428.48 492.8L454.58 396.8Z" id="b30ytN91u3"></path><path d="M352.92 379.84L287.08 379.84L319.56 260.16L352.92 379.84Z" id="ijmP9SYKJ"></path><path d="M352.92 379.84L287.08 379.84L319.56 260.16L352.92 379.84Z" id="a5O4NvS0b2"></path></defs><g><g><g><use xlink:href="#c74HvA2klj" opacity="1" fill="#ffc107" fill-opacity="1"></use><g><use xlink:href="#c74HvA2klj" opacity="1" fill-opacity="0" stroke="#000000" stroke-width="1" stroke-opacity="0"></use></g></g><g><use xlink:href="#f1846egmsl" opacity="1" fill="#000000" fill-opacity="0"></use></g><g><use xlink:href="#a27F7BWgs" opacity="1" fill="#4dbd74" fill-opacity="1"></use><g><use xlink:href="#a27F7BWgs" opacity="1" fill-opacity="0" stroke="#000000" stroke-width="1" stroke-opacity="0"></use></g></g><g><use xlink:href="#a1UDQKDCd6" opacity="1" fill="#000000" fill-opacity="0"></use></g><g><use xlink:href="#a1VRN9eC6e" opacity="1" fill="#63c2de" fill-opacity="1"></use><g><use xlink:href="#a1VRN9eC6e" opacity="1" fill-opacity="0" stroke="#000000" stroke-width="1" stroke-opacity="0"></use></g></g><g><use xlink:href="#f1qD1aVUr" opacity="1" fill="#000000" fill-opacity="0"></use></g><g><use xlink:href="#b49UuJR0C3" opacity="1" fill="#ff92f1" fill-opacity="1"></use><g><use xlink:href="#b49UuJR0C3" opacity="1" fill-opacity="0" stroke="#000000" stroke-width="1" stroke-opacity="0"></use></g></g><g><use xlink:href="#b27Drdo6kq" opacity="1" fill="#000000" fill-opacity="0"></use></g><g><use xlink:href="#bHGlMyQcS" opacity="1" fill="#f86c6b" fill-opacity="1"></use><g><use xlink:href="#bHGlMyQcS" opacity="1" fill-opacity="0" stroke="#000000" stroke-width="1" stroke-opacity="0"></use></g></g><g><use xlink:href="#b30ytN91u3" opacity="1" fill="#000000" fill-opacity="0"></use></g><g><use xlink:href="#ijmP9SYKJ" opacity="1" fill="#ffc107" fill-opacity="1"></use><g><use xlink:href="#ijmP9SYKJ" opacity="1" fill-opacity="0" stroke="#000000" stroke-width="1" stroke-opacity="0"></use></g></g><g><use xlink:href="#a5O4NvS0b2" opacity="1" fill="#000000" fill-opacity="0"></use></g></g></g></svg>