<?xml version="1.0" encoding="UTF-8" standalone="no"?>
<!DOCTYPE svg PUBLIC "-//W3C//DTD SVG 1.1//EN" "http://www.w3.org/Graphics/SVG/1.1/DTD/svg11.dtd">
<svg version="1.1" xmlns="http://www.w3.org/2000/svg" xmlns:xlink="http://www.w3.org/1999/xlink" preserveAspectRatio="xMidYMid meet" viewBox="0 0 640 640" width="640" height="640"><defs><path d="M340.88 185.6L299.12 185.6L250.91 368.06L250.91 160L389.09 160L389.09 368.1L340.88 185.6Z" id="d244BQFeXH"></path><path d="M99.92 134.4L238.11 134.4L238.11 353.54L214.26 353.54L169.75 185.6L128 185.6L173.66 353.54L99.92 353.54L99.92 134.4Z" id="dAsCX1GDL"></path><path d="M401.89 134.4L540.08 134.4L540.08 353.54L466.34 353.54L512 185.6L470.23 185.6L425.73 353.54L401.89 353.54L401.89 134.4Z" id="bQnmWL6PL"></path><path d="M257.35 492.8L283.51 396.8L313.6 396.8L313.6 521.17L116.38 521.17L116.38 396.8L185.42 396.8L211.52 492.8L257.35 492.8Z" id="f1uAfq7Wpq"></path><path d="M428.48 492.8L454.58 396.8L523.62 396.8L523.62 521.16L326.4 521.16L326.4 396.8L356.57 396.8L382.64 492.8L428.48 492.8Z" id="dakJY42kW"></path><path d="M319.56 260.16L352.92 379.84L287.08 379.84L319.56 260.16Z" id="c1If2uI218"></path></defs><g><g><g><use xlink:href="#d244BQFeXH" opacity="1" fill="#ffc107" fill-opacity="1"></use><g><use xlink:href="#d244BQFeXH" opacity="1" fill-opacity="0" stroke="#c69500" stroke-width="1" stroke-opacity="1"></use></g></g><g><use xlink:href="#dAsCX1GDL" opacity="1" fill="#4dbd74" fill-opacity="1"></use><g><use xlink:href="#dAsCX1GDL" opacity="1" fill-opacity="0" stroke="#379457" stroke-width="1" stroke-opacity="1"></use></g></g><g><use xlink:href="#bQnmWL6PL" opacity="1" fill="#63c2de" fill-opacity="1"></use><g><use xlink:href="#bQnmWL6PL" opacity="1" fill-opacity="0" stroke="#2eadd3" stroke-width="1" stroke-opacity="1"></use></g></g><g><use xlink:href="#f1uAfq7Wpq" opacity="1" fill="#ff92f1" fill-opacity="1"></use><g><use xlink:href="#f1uAfq7Wpq" opacity="1" fill-opacity="0" stroke="#d279e8" stroke-width="1" stroke-opacity="1"></use></g></g><g><use xlink:href="#dakJY42kW" opacity="1" fill="#f86c6b" fill-opacity="1"></use><g><use xlink:href="#dakJY42kW" opacity="1" fill-opacity="0" stroke="#f5302e" stroke-width="1" stroke-opacity="1"></use></g></g><g><use xlink:href="#c1If2uI218" opacity="1" fill="#ffc107" fill-opacity="1"></use><g><use xlink:href="#c1If2uI218" opacity="1" fill-opacity="0" stroke="#c69500" stroke-width="1" stroke-opacity="1"></use></g></g></g></g></svg>