<?xml version="1.0" encoding="utf-8"?>
<svg viewBox="0 0 1500 360" xmlns="http://www.w3.org/2000/svg">
  <defs>
    <style id="bx-google-fonts">@import url(https://fonts.googleapis.com/css?family=Actor:400);</style>
  </defs>
  <path d="M 196.02 55 L 303.98 55 L 303.98 217.582 L 266.314 75 L 233.685 75 L 196.02 217.55 Z M 274.82 226.2 L 225.25 226.2 L 250.077 135.084 Z" style="fill: rgb(255, 255, 0);"/>
  <path d="M 78.06 35 L 186.02 35 L 186.02 206.2 L 167.391 206.2 L 132.62 75 L 100 75 L 135.669 206.2 L 78.06 206.2 Z" style="fill: rgb(0, 255, 0);"/>
  <path d="M 313.98 35 L 421.94 35 L 421.94 206.2 L 364.33 206.2 L 400 75 L 367.37 75 L 332.598 206.2 L 313.98 206.2 Z" style="fill: rgb(0, 0, 255);"/>
  <path d="M 90.92 240 L 144.859 240 L 165.249 315 L 201.054 315 L 221.49 240 L 245 240 L 245 337.164 L 90.92 337.164 Z M 176.349 240 L 190.088 240 L 183.229 265.96 Z" style="fill: rgb(255, 0, 255);"/>
  <path d="M 255 240 L 278.567 240 L 298.934 315 L 334.75 315 L 355.141 240 L 409.08 240 L 409.08 337.16 L 255 337.16 Z M 309.902 240 L 323.64 240 L 316.76 265.96 Z" style="fill: rgb(255, 0, 0);"/>
  <text x="492.257" y="241.916" style="font-family: Actor; font-size: 124px; white-space: pre;">WalletLess LLC</text>
</svg>