<?xml version="1.0" encoding="UTF-8" standalone="no"?>
<!DOCTYPE svg PUBLIC "-//W3C//DTD SVG 1.1//EN" "http://www.w3.org/Graphics/SVG/1.1/DTD/svg11.dtd">
<svg version="1.1" xmlns="http://www.w3.org/2000/svg" xmlns:xlink="http://www.w3.org/1999/xlink" preserveAspectRatio="xMidYMid meet" viewBox="0 0 460 460" width="460" height="460"><defs><path d="M230 3.73L456.27 230L230 456.27L3.73 230L230 3.73Z" id="aak7OKD2x"></path><path d="M230 431.25L431.25 230L230 28.75L26.91 230L230 431.25Z" id="a4qcWVOI2"></path><path d="M366.56 208.44C336.84 166.19 317.67 154.21 309.06 172.5C300.46 190.79 288.48 248.29 273.13 345C259.44 198.78 245.06 125.51 230 125.19C214.94 124.87 200.56 198.14 186.87 345C172.6 247.56 160.62 190.06 150.94 172.5C141.26 154.94 122.09 166.92 93.44 208.44" id="bcsa8ifNK"></path><path d="M380.94 215.63C380.94 221.14 376.46 225.62 370.94 225.62C365.42 225.62 360.94 221.14 360.94 215.63C360.94 210.11 365.42 205.63 370.94 205.63C376.46 205.63 380.94 210.11 380.94 215.63Z" id="g2Ur8ur3WJ"></path><path d="M99.06 215.63C99.06 221.14 94.58 225.62 89.06 225.62C83.54 225.62 79.06 221.14 79.06 215.63C79.06 210.11 83.54 205.63 89.06 205.63C94.58 205.63 99.06 210.11 99.06 215.63Z" id="g1cD63y4um"></path></defs><g><g><g><use xlink:href="#aak7OKD2x" opacity="1" fill="#2b8ee0" fill-opacity="1"></use></g><g><g><use xlink:href="#a4qcWVOI2" opacity="1" fill-opacity="0" stroke="#ffffff" stroke-width="3" stroke-opacity="1"></use></g></g><g><g><use xlink:href="#bcsa8ifNK" opacity="1" fill-opacity="0" stroke="#ffffff" stroke-width="7" stroke-opacity="1"></use></g></g><g><g><use xlink:href="#g2Ur8ur3WJ" opacity="1" fill-opacity="0" stroke="#ffffff" stroke-width="4" stroke-opacity="1"></use></g></g><g><g><use xlink:href="#g1cD63y4um" opacity="1" fill-opacity="0" stroke="#ffffff" stroke-width="4" stroke-opacity="1"></use></g></g></g></g></svg>