<?xml version="1.0" encoding="utf-8"?>
<svg viewBox="0 0 200 200" xmlns="http://www.w3.org/2000/svg">
  <g transform="matrix(0.833434, 0, 0, 0.832979, 6.329493, 5.344681)">
    <path d="M 53.966 112.394 L 53.662 112.394 Z" style="stroke: black; fill: none;"/>
    <path d="M 117.442 119.626 L 117.258 119.626 Z" style="stroke: black; fill: none;"/>
    <ellipse cx="148.383" cy="100.577" rx="16.154" ry="16.657" style="fill: rgb(255, 255, 255);"/>
    <path d="M 126.18 125.846 C 131.668 119.841 139.583 116.071 148.383 116.071 C 164.952 116.071 178.383 129.434 178.383 145.92 L 139.064 145.92 C 136.53 138.2 132.048 131.326 126.18 125.846 Z" style="fill: rgb(255, 255, 255);"/>
    <rect x="141.46" y="113.532" width="13.846" height="8.328" style="fill: rgb(255, 255, 255);"/>
    <path d="M 56.914 115.285 L 56.638 115.285 Z" style="stroke: black; fill: none;"/>
    <ellipse cx="91.399" cy="91.829" rx="24.231" ry="25.254" style="fill: rgb(255, 255, 255);"/>
    <path d="M 46.399 160.575 C 46.399 135.581 66.546 115.321 91.399 115.321 C 116.252 115.321 136.399 135.581 136.399 160.575 Z" style="fill: rgb(255, 255, 255);"/>
    <rect x="81.015" y="111.471" width="20.769" height="12.627" style="fill: rgb(255, 255, 255);"/>
  </g>
  <g transform="matrix(0.775862, 0, 0, 0.783333, 11.796812, 11.004328)"/>
</svg>