<?xml version="1.0" encoding="utf-8"?>
<svg viewBox="0 0 200 200" xmlns="http://www.w3.org/2000/svg">
  <path d="M 150 100 C 150 130.376 127.614 155 100 155 C 72.386 155 50 130.376 50 100 C 50 92.509 51.361 85.369 53.826 78.86 C 60.896 79.087 69.781 76.037 78.389 69.804 C 87.966 62.87 94.994 53.597 97.943 45.046 C 98.625 45.016 99.311 45 100 45 C 100.456 45 100.911 45.006 101.363 45.02 C 104.307 53.579 111.339 62.864 120.925 69.804 C 129.81 76.235 138.988 79.28 146.161 78.829 C 148.634 85.344 150 92.497 150 100 Z M 96 134.1 L 104 134.1 L 104 108.8 L 127 108.8 L 127 100 L 104 100 L 104 74.7 L 96 74.7 L 96 100 L 73 100 L 73 108.8 L 96 108.8 Z" style="fill: rgb(255, 255, 255);"/>
</svg>